<?xml version="1.0" encoding="iso-8859-1"?>
<!-- Uploaded to: SVG Repo, www.svgrepo.com, Generator: SVG Repo Mixer Tools -->
<!DOCTYPE svg PUBLIC "-//W3C//DTD SVG 1.1//EN" "http://www.w3.org/Graphics/SVG/1.1/DTD/svg11.dtd">
<svg fill="#000000" height="800px" width="800px" version="1.1" id="Capa_1" xmlns="http://www.w3.org/2000/svg" xmlns:xlink="http://www.w3.org/1999/xlink" 
	 viewBox="0 0 297 297" xml:space="preserve">
<g>
	<path fill="#ec5242" d="M128.62,164.724c1.385,0.742,2.905,1.109,4.42,1.109c1.818,0,3.63-0.529,5.198-1.574l46.377-30.918
		c2.607-1.737,4.172-4.663,4.172-7.795c0-3.133-1.565-6.058-4.172-7.795l-46.377-30.918c-2.874-1.918-6.57-2.097-9.618-0.465
		c-3.046,1.63-4.948,4.805-4.948,8.26v61.836C123.672,159.919,125.574,163.093,128.62,164.724z M142.41,112.134l20.118,13.411
		l-20.118,13.411V112.134z"/>
	<path fill="#fff" d="M287.631,7.495H9.369C4.195,7.495,0,11.69,0,16.864v31.386c0,5.174,4.195,9.369,9.369,9.369h21.549v145.221
		c0,5.174,4.195,9.369,9.369,9.369h98.844v29.48c-9.058,3.706-15.459,12.61-15.459,22.987c0,13.69,11.138,24.828,24.828,24.828
		s24.828-11.138,24.828-24.828c0-10.376-6.401-19.281-15.459-22.987v-29.48h98.844c5.174,0,9.369-4.195,9.369-9.369V57.62h21.549
		c5.174,0,9.369-4.195,9.369-9.369V16.864C297,11.69,292.805,7.495,287.631,7.495z M148.5,270.767c-3.358,0-6.09-2.732-6.09-6.09
		c0-3.358,2.732-6.09,6.09-6.09s6.09,2.732,6.09,6.09C154.59,268.034,151.858,270.767,148.5,270.767z M247.344,193.472H49.656V57.62
		h197.688V193.472z M18.738,38.882V26.233h259.524v12.648H18.738z"/>
</g>
</svg>